<?xml version="1.0" standalone="no"?>
<!DOCTYPE svg PUBLIC "-//W3C//DTD SVG 20010904//EN"
 "http://www.w3.org/TR/2001/REC-SVG-20010904/DTD/svg10.dtd">
<svg version="1.0" xmlns="http://www.w3.org/2000/svg"
 width="928.000000pt" height="106.000000pt" viewBox="0 0 928.000000 106.000000"
 preserveAspectRatio="xMidYMid meet">

<g transform="translate(0.000000,106.000000) scale(0.100000,-0.100000)"
fill="#000000" stroke="none">
<path d="M40 1001 c0 -13 10 -21 33 -25 41 -8 74 -41 87 -87 6 -19 10 -178 10
-361 0 -279 -2 -334 -16 -368 -17 -42 -55 -70 -94 -70 -13 0 -20 -7 -20 -20 0
-20 7 -20 424 -20 l423 0 6 58 c4 31 9 99 13 150 6 90 6 92 -15 92 -16 0 -27
-12 -42 -47 -35 -84 -53 -114 -90 -148 -46 -42 -106 -55 -249 -55 l-110 0 0
384 c0 248 4 395 11 413 16 42 48 72 86 79 23 4 33 12 33 25 0 18 -11 19 -245
19 -234 0 -245 -1 -245 -19z"/>
<path d="M1416 988 c-7 -18 -83 -208 -167 -423 -168 -425 -185 -456 -262 -470
-27 -5 -37 -12 -37 -26 0 -18 10 -19 170 -19 159 0 170 1 170 19 0 14 -10 20
-39 25 -43 7 -81 44 -81 80 0 11 10 51 22 88 l22 68 168 0 169 0 24 -55 c31
-69 40 -126 26 -153 -6 -11 -27 -24 -48 -29 -23 -5 -39 -15 -41 -26 -3 -16 15
-17 237 -17 230 0 241 1 241 19 0 14 -10 21 -35 25 -22 4 -44 19 -62 41 -15
18 -111 225 -213 459 l-185 426 -33 0 c-28 0 -35 -5 -46 -32z m38 -431 l74
-167 -145 0 c-112 0 -144 3 -140 13 3 6 33 83 68 169 34 87 64 157 65 155 2
-1 36 -78 78 -170z"/>
<path d="M2310 1001 c0 -13 10 -21 33 -25 41 -8 74 -41 87 -87 6 -19 10 -178
10 -361 0 -279 -2 -334 -16 -368 -17 -42 -55 -70 -94 -70 -13 0 -20 -7 -20
-20 0 -20 7 -20 279 -20 201 0 302 4 363 15 152 26 231 73 274 161 66 134 -10
277 -171 325 -49 14 -56 24 -26 34 42 13 103 68 122 108 37 82 15 185 -49 239
-81 68 -203 88 -543 88 -237 0 -249 -1 -249 -19z m540 -59 c43 -21 76 -69 85
-123 24 -138 -59 -229 -207 -229 l-48 0 0 185 0 185 68 0 c44 0 79 -6 102 -18z
m6 -417 c84 -25 131 -85 141 -179 10 -100 -36 -187 -115 -219 -21 -8 -75 -19
-120 -22 l-82 -8 0 222 0 221 63 0 c35 0 86 -7 113 -15z"/>
<path d="M3280 1002 c0 -15 9 -21 33 -26 41 -8 74 -41 87 -87 6 -19 10 -178
10 -361 0 -279 -2 -334 -16 -368 -17 -42 -55 -70 -94 -70 -13 0 -20 -7 -20
-20 0 -19 7 -20 250 -20 243 0 250 1 250 20 0 13 -7 20 -20 20 -31 0 -68 21
-87 49 -15 21 -19 53 -21 169 l-4 142 59 0 58 0 84 -163 c126 -243 117 -237
341 -237 153 0 160 1 160 20 0 14 -7 20 -22 20 -37 0 -106 40 -137 78 -16 20
-68 100 -116 177 -77 125 -85 141 -70 150 55 31 103 76 125 115 21 38 25 58
25 125 0 140 -65 211 -240 263 -37 11 -125 16 -342 19 -287 5 -293 5 -293 -15z
m493 -53 c94 -26 145 -121 134 -247 -12 -123 -73 -186 -196 -198 l-61 -7 0
232 0 231 43 0 c23 0 59 -5 80 -11z"/>
<path d="M4230 1002 c0 -13 13 -21 46 -30 39 -11 48 -18 64 -55 18 -37 20 -67
20 -274 0 -256 7 -310 52 -396 75 -140 231 -217 414 -204 126 9 211 63 264
168 41 78 50 158 50 429 0 300 4 318 78 334 30 7 42 15 42 28 0 17 -12 18
-145 18 -133 0 -145 -1 -145 -18 0 -13 12 -21 43 -28 34 -7 46 -16 60 -44 16
-32 18 -61 14 -310 -4 -297 -9 -334 -61 -409 -41 -59 -98 -86 -181 -86 -115 1
-176 46 -221 165 -14 37 -18 91 -22 311 -4 252 -3 269 16 313 18 40 26 47 66
58 33 9 46 17 46 30 0 17 -16 18 -250 18 -234 0 -250 -1 -250 -18z"/>
<path d="M5330 1002 c0 -13 11 -21 37 -28 21 -5 45 -21 57 -37 20 -27 21 -41
24 -380 2 -194 0 -367 -3 -386 -8 -45 -46 -81 -85 -81 -23 0 -30 -4 -30 -20 0
-19 7 -20 160 -20 150 0 160 1 160 19 0 14 -10 20 -42 24 -53 7 -84 41 -93 99
-3 24 -5 181 -3 349 l3 306 310 -396 310 -396 43 -3 42 -3 0 423 c0 487 0 485
78 502 30 7 42 15 42 28 0 17 -12 18 -155 18 -148 0 -155 -1 -155 -20 0 -15 7
-20 28 -20 46 0 90 -34 102 -79 6 -24 9 -124 8 -253 l-3 -214 -231 290 -231
291 -186 3 c-176 2 -187 1 -187 -16z"/>
<path d="M6410 1001 c0 -13 10 -21 33 -25 38 -7 70 -37 86 -79 7 -18 11 -150
11 -362 0 -285 -2 -341 -16 -375 -17 -42 -55 -70 -94 -70 -13 0 -20 -7 -20
-20 0 -20 7 -20 429 -20 l428 0 7 123 c4 67 9 134 12 149 5 24 2 28 -18 28
-19 0 -29 -12 -53 -67 -16 -37 -45 -85 -64 -106 -58 -64 -79 -71 -238 -75
l-143 -4 0 206 0 206 48 0 c109 0 152 -31 173 -126 9 -41 16 -54 31 -54 17 0
18 13 18 205 0 198 -1 205 -20 205 -15 0 -21 -9 -26 -41 -14 -87 -67 -127
-171 -128 l-53 -1 0 195 0 195 115 0 c74 0 127 -5 148 -13 46 -20 104 -89 138
-164 22 -48 33 -64 46 -61 21 4 20 -7 9 166 l-8 132 -404 0 c-389 0 -404 -1
-404 -19z"/>
<path d="M7306 898 c-4 -68 -9 -135 -12 -150 -5 -24 -2 -28 19 -28 20 0 28 9
42 48 23 59 40 88 79 130 44 48 77 62 146 62 l60 0 0 -380 c0 -327 -2 -385
-16 -420 -17 -42 -55 -70 -94 -70 -13 0 -20 -7 -20 -20 0 -19 7 -20 250 -20
243 0 250 1 250 20 0 13 -7 20 -20 20 -39 0 -77 28 -94 70 -14 35 -16 93 -16
420 l0 380 60 0 c34 0 73 -6 89 -14 44 -23 95 -86 126 -159 24 -55 34 -67 53
-67 20 0 23 4 18 28 -3 15 -8 82 -12 150 l-7 122 -447 0 -447 0 -7 -122z"/>
<path d="M8606 988 c-7 -18 -83 -208 -167 -423 -168 -425 -185 -456 -262 -470
-27 -5 -37 -12 -37 -26 0 -18 10 -19 170 -19 159 0 170 1 170 19 0 14 -10 20
-39 25 -43 7 -81 44 -81 80 0 11 10 51 22 88 l22 68 168 0 169 0 24 -55 c31
-69 40 -126 26 -153 -6 -11 -27 -24 -48 -29 -23 -5 -39 -15 -41 -26 -3 -16 15
-17 237 -17 230 0 241 1 241 19 0 14 -10 21 -35 25 -22 4 -44 19 -62 41 -15
18 -111 225 -213 459 l-185 426 -33 0 c-28 0 -35 -5 -46 -32z m38 -431 l74
-167 -145 0 c-112 0 -144 3 -140 13 3 6 33 83 68 169 34 87 64 157 65 155 2
-1 36 -78 78 -170z"/>
</g>
</svg>
